<?xml version="1.0" encoding="UTF-8" standalone="no"?>
<!-- Created with Inkscape (http://www.inkscape.org/) -->

<svg
   xmlns:dc="http://purl.org/dc/elements/1.1/"
   xmlns:cc="http://creativecommons.org/ns#"
   xmlns:rdf="http://www.w3.org/1999/02/22-rdf-syntax-ns#"
   xmlns:svg="http://www.w3.org/2000/svg"
   xmlns="http://www.w3.org/2000/svg"
   xmlns:sodipodi="http://sodipodi.sourceforge.net/DTD/sodipodi-0.dtd"
   xmlns:inkscape="http://www.inkscape.org/namespaces/inkscape"
   width="242.03944mm"
   height="66.207375mm"
   viewBox="0 0 857.62008 234.59306"
   id="svg2"
   version="1.1"
   inkscape:version="0.91 r13725"
   sodipodi:docname="elbziegel-logo.svg"
   inkscape:export-filename="F:\Users\pseud0o\Documents\path4168.png"
   inkscape:export-xdpi="90"
   inkscape:export-ydpi="90">
  <defs
     id="defs4" />
  <sodipodi:namedview
     id="base"
     pagecolor="#ffffff"
     bordercolor="#666666"
     borderopacity="1.0"
     inkscape:pageopacity="0.0"
     inkscape:pageshadow="2"
     inkscape:zoom="1"
     inkscape:cx="288.88126"
     inkscape:cy="62.125531"
     inkscape:document-units="px"
     inkscape:current-layer="layer1"
     showgrid="false"
     inkscape:window-width="1920"
     inkscape:window-height="1138"
     inkscape:window-x="-8"
     inkscape:window-y="-8"
     inkscape:window-maximized="1"
     fit-margin-top="0"
     fit-margin-left="0"
     fit-margin-right="0"
     fit-margin-bottom="0"
     inkscape:snap-global="false" />
  <metadata
     id="metadata7">
    <rdf:RDF>
      <cc:Work
         rdf:about="">
        <dc:format>image/svg+xml</dc:format>
        <dc:type
           rdf:resource="http://purl.org/dc/dcmitype/StillImage" />
        <dc:title />
      </cc:Work>
    </rdf:RDF>
  </metadata>
  <g
     inkscape:label="Ebene 1"
     inkscape:groupmode="layer"
     id="layer1"
     transform="translate(21.75337,-515.32809)">
    <path
       style="fill:#000000;fill-opacity:1;fill-rule:evenodd;stroke:none;stroke-width:1px;stroke-linecap:butt;stroke-linejoin:miter;stroke-opacity:1"
       d="m 599.60252,737.13636 -332.72008,0.75544 c 0.25253,-36.36396 -14.64721,-56.56854 -14.64721,-56.56854 0,0 5.43877,37.98445 -18.89684,54.46157 -2.60247,1.76208 -5.16937,3.78176 -7.79253,5.00333 -51.06043,23.77823 -85.70465,-13.67897 -85.43756,-57.44459 0,0 -13.63706,21.2132 -14.14214,48.23478 0,0 -83.22976,-1.90597 -85.48307,-2.84486 C 14.13183,721.28504 6.29964,708.0923 6.29964,708.0923 c 0,0 -16.21155,0.0791 -18.42601,-0.79088 -8.20579,-5.89787 -9.18013,-11.69731 -9.627,-15.76156 0.0162,-6.43857 0.90465,-14.73129 15.38955,-14.76229 1.34245,0.26849 -0.91182,-47.14577 0.51176,-58.139 4.43831,-11.09576 33.2443,-99.17975 36.92132,-98.54743 14.3012,-1.47943 334.86092,-8.67738 438.34877,-1.90752 3.57198,-0.10206 19.42617,2.67743 26.26397,7.57615 2.65347,0.91851 82.25974,61.72969 88.89342,70.71068 75.66043,5.65685 117.80032,9.19481 221.9218,31.64545 2.9522,0.44613 3.36098,6.60271 4.48228,10.79884 0.25,1.875 9.28969,0.0579 9.11289,41.6004 0,0 5.01823,1.34569 5.6064,5.42957 6.1872,0.53033 10.03991,-0.2016 9.6967,3.43751 l 0.4118,14.27397 c 0.82806,5.70933 -7.25286,12.08711 -8.4383,11.77085 l -10.4585,-0.76875 c -3.4385,3.29513 -7.82976,9.52541 -8.5863,10.10153 l 0.5051,6.06092 c 1.26965,0 2.46723,1.0143 2.46723,1.0143 l -0.85149,5.00547 c 0,0 -5.44374,1.30346 -10.70714,0.54622 l -24.74872,-11.11168 -30.30457,5.05076 c -0.75717,-36.15467 -18.05625,-59.47161 -18.05625,-59.47161 15.31103,104.93492 -122.0611,100.05939 -110.29248,9.47167 0,0 -13.72893,13.49827 -16.73335,55.81049 z"
       id="path4168"
       inkscape:connector-curvature="0"
       sodipodi:nodetypes="cccsscccccccccccccccccccccccccccccc" />
    <g
       id="g4236"
       transform="translate(-210.91971,85.044933)">
      <path
         inkscape:connector-curvature="0"
         id="path4174"
         d="m 462.42739,531.88424 27.44353,0 -0.15818,12.41681 -27.44352,0.0791 z"
         style="fill:#ffffff;fill-opacity:1;fill-rule:evenodd;stroke:none;stroke-width:1px;stroke-linecap:butt;stroke-linejoin:miter;stroke-opacity:1" />
      <path
         inkscape:connector-curvature="0"
         id="path4174-6"
         d="m 612.10137,533.30709 27.44353,0 -0.15818,12.41681 -27.44352,0.0791 z"
         style="fill:#ffffff;fill-opacity:1;fill-rule:evenodd;stroke:none;stroke-width:1px;stroke-linecap:butt;stroke-linejoin:miter;stroke-opacity:1" />
      <path
         sodipodi:nodetypes="cccccccc"
         inkscape:connector-curvature="0"
         id="path4191"
         d="m 719.01029,493.13934 c 0.0932,9.73072 1.46593,28.40126 0.20052,29.19214 -0.79254,1.81244 -67.55124,-1.57943 -101.3664,-2.25052 -1.20209,-0.13399 -2.76006,0.31576 -3.13172,-2.46064 l -6.93453,-61.40416 c -0.0903,-1.67324 -0.072,-2.75778 2.90803,-2.79618 25.05379,0.74565 72.35981,-1.22486 76.13922,3.77567 0,0 31.84934,32.47642 32.18488,35.94369 z"
         style="fill:#ffffff;fill-opacity:1;fill-rule:evenodd;stroke:none;stroke-width:1px;stroke-linecap:butt;stroke-linejoin:miter;stroke-opacity:1" />
      <path
         sodipodi:nodetypes="ccccccc"
         inkscape:connector-curvature="0"
         id="path4193"
         d="m 205.56627,538.05218 c -0.232,-2.61086 1.77201,-3.55789 3.58816,-3.54292 l 6.1516,0.11185 c 2.30791,0.27201 4.01394,1.25534 4.58574,3.57912 3.99966,10.13825 7.25627,53.75346 6.48714,55.25256 -1.02814,0.92928 -19.86936,0.0481 -20.57478,-1.10893 z"
         style="fill:#ffffff;fill-opacity:1;fill-rule:evenodd;stroke:none;stroke-width:1px;stroke-linecap:butt;stroke-linejoin:miter;stroke-opacity:1" />
      <path
         sodipodi:nodetypes="cccsc"
         inkscape:connector-curvature="0"
         id="path4195"
         d="m 370.68267,580.93152 c 14.27897,-12.25059 58.69191,-12.91793 75.60811,-3.08443 12.8102,16.79282 17.70216,69.44355 -36.534,76.73685 -17.71118,-0.45027 -20.97837,-3.61268 -26.12189,-6.93373 -25.35523,-16.3713 -24.46237,-47.17674 -12.95222,-66.71869 z"
         style="fill:#ffffff;fill-opacity:1;fill-rule:evenodd;stroke:none;stroke-width:1px;stroke-linecap:butt;stroke-linejoin:miter;stroke-opacity:1" />
      <path
         sodipodi:nodetypes="cccsc"
         inkscape:connector-curvature="0"
         id="path4195-9"
         d="m 844.30257,580.02318 c 20.34178,-11.02559 64.26712,-16.32772 76.16173,-3.08443 17.88922,20.05277 15.53321,75.38752 -38.31794,76.96054 -17.71118,-0.45027 -19.80417,-3.75103 -24.89157,-7.15742 -23.90167,-16.00395 -25.8527,-47.11083 -12.95222,-66.71869 z"
         style="fill:#ffffff;fill-opacity:1;fill-rule:evenodd;stroke:none;stroke-width:1px;stroke-linecap:butt;stroke-linejoin:miter;stroke-opacity:1" />
      <path
         sodipodi:nodetypes="cccscccc"
         inkscape:connector-curvature="0"
         id="path4228"
         d="m 1003.1663,555.44157 11.8511,0.11979 c 3.1135,0.42805 6.4969,2.09658 7.5312,4.62083 3.4678,14.24437 4.2066,32.33837 4.3773,34.45035 0.095,1.17851 -0.9878,2.23902 -1.2128,2.06614 l -23.2021,0.43382 c -3.00938,-0.88445 -5.71446,-2.20852 -6.84645,-5.80481 -1.33893,4.68302 1.52316,-33.22329 7.50175,-35.88612 z"
         style="fill:#ffffff;fill-opacity:1;fill-rule:evenodd;stroke:none;stroke-width:1px;stroke-linecap:butt;stroke-linejoin:miter;stroke-opacity:1" />
      <path
         sodipodi:nodetypes="ccccccccc"
         inkscape:connector-curvature="0"
         id="path4230"
         d="m 252.55117,460.01897 c 3.53596,-5.90242 8.09235,-6.42672 10.70459,-6.48152 l 201.9171,-0.34117 c 3.11857,-0.12804 2.76112,3.34958 2.46064,5.14499 l -14.26052,55.81179 c -0.61452,3.82475 -2.1572,3.89905 -3.29949,3.97058 l -212.39006,-0.14063 c -2.41723,-0.66259 -6.1277,-4.29071 -4.61849,-9.2529 6.7854,-16.5534 17.21794,-45.13726 19.48623,-48.71114 z"
         style="fill:#ffffff;fill-opacity:1;fill-rule:evenodd;stroke:none;stroke-width:1px;stroke-linecap:butt;stroke-linejoin:miter;stroke-opacity:1" />
      <path
         sodipodi:nodetypes="ccccccccc"
         inkscape:connector-curvature="0"
         id="path4232"
         d="m 471.75977,517.41114 c -0.16971,0.56471 0.0322,0.8975 0.50464,0.97416 l 112.0771,1.55666 c 4.09281,-0.23067 5.00587,-2.36919 5.45706,-4.78483 l 0.83043,-58.23821 c -0.25059,-1.93193 -1.2051,-3.46161 -4.38939,-3.71714 l -99.55856,-0.21171 c -0.19944,-0.049 -0.76285,0.15002 -0.88327,0.74284 z"
         style="fill:#ffffff;fill-opacity:1;fill-rule:evenodd;stroke:none;stroke-width:1px;stroke-linecap:butt;stroke-linejoin:miter;stroke-opacity:1" />
      <path
         sodipodi:nodetypes="cccccc"
         inkscape:connector-curvature="0"
         id="path4234"
         d="m 763.35714,514.24762 c 1.31339,2.10375 17.3171,1.49288 18.58567,-0.39544 2.34512,-0.78948 4.02162,-1.66007 3.55896,-4.03348 -1.38606,-5.99238 -50.51947,-42.97114 -78.13892,-64.21944 -5.94247,-1.65402 -7.38605,0.92621 -6.16886,6.01068 21.33674,24.57335 41.61581,42.80069 62.16315,62.63768 z"
         style="fill:#ffffff;fill-opacity:1;fill-rule:evenodd;stroke:none;stroke-width:1px;stroke-linecap:butt;stroke-linejoin:miter;stroke-opacity:1" />
    </g>
  </g>
</svg>
